<svg width="24" height="25" viewBox="0 0 24 25" fill="none" xmlns="http://www.w3.org/2000/svg">
<path fill-rule="evenodd" clip-rule="evenodd" d="M2 2H13.25V8.25H11.375V3.875H3.875V20.125H11.375V15.75H13.25V22H2V2Z" fill="#A7C957" stroke="black" stroke-width="2.1" stroke-linecap="round" stroke-linejoin="round"/>
<path fill-rule="evenodd" clip-rule="evenodd" d="M18.4165 11.0625L16.1972 8.84328L17.523 7.51746L22.0056 12L17.523 16.4825L16.1972 15.1567L18.4165 12.9375H8.25V11.0625H18.4165Z" fill="#A7C957" stroke="black" stroke-width="2.1" stroke-linecap="round" stroke-linejoin="round"/>
<path fill-rule="evenodd" clip-rule="evenodd" d="M2 2H13.25V8.25H11.375V3.875H3.875V20.125H11.375V15.75H13.25V22H2V2Z" fill="#A7C957" stroke="#A7C957" stroke-width="0.0003"/>
<path fill-rule="evenodd" clip-rule="evenodd" d="M18.4165 11.0625L16.1972 8.84328L17.523 7.51746L22.0056 12L17.523 16.4825L16.1972 15.1567L18.4165 12.9375H8.25V11.0625H18.4165Z" fill="#A7C957" stroke="#A7C957" stroke-width="0.0003"/>
</svg>
